<?xml version="1.0" encoding="UTF-8"?>
<svg width="393px" height="354px" viewBox="0 0 393 354" version="1.1" xmlns="http://www.w3.org/2000/svg" xmlns:xlink="http://www.w3.org/1999/xlink">
    <!-- Generator: Sketch 52.2 (67145) - http://www.bohemiancoding.com/sketch -->
    <title>Group 62@2x</title>
    <desc>Created with Sketch.</desc>
    <defs>
        <polygon id="path-1" points="2.52551118e-06 0.352469878 392.113384 0.352469878 392.113384 63.667053 2.52551118e-06 63.667053"></polygon>
        <polygon id="path-3" points="0.210701037 0.0253745501 197.070613 0.0253745501 197.070613 303.982174 0.210701037 303.982174"></polygon>
        <polygon id="path-5" points="0 353.83426 392.113384 353.83426 392.113384 0.461355456 0 0.461355456"></polygon>
    </defs>
    <g id="Mockups" stroke="none" stroke-width="1" fill="none" fill-rule="evenodd">
        <g id="Frontpage---Desktop" transform="translate(-65.000000, -1098.000000)">
            <g id="Group-62" transform="translate(65.500000, 1097.811279)">
                <path d="M19.9695403,270.444631 C56.3621814,319.707705 192.731473,299.16816 322.971657,290.999862 C493.908928,280.279806 283.926222,186.187284 251.481399,136.128371 C219.036577,86.0699203 170.329436,58.6921648 101.011701,103.619421 C31.6944278,148.547138 -4.50121451,237.31977 19.9695403,270.444631" id="Fill-1" fill="#FFFFFF"></path>
                <g id="Group-5" transform="translate(0.000000, 290.167208)">
                    <mask id="mask-2" fill="white">
                        <use xlink:href="#path-1"></use>
                    </mask>
                    <g id="Clip-4"></g>
                    <path d="M371.44955,0.362117898 C306.458868,1.43292391 154.137751,2.44606049 64.6832345,3.91962982 C-72.8237593,6.18534647 43.7127836,38.9807991 95.8597908,48.16085 C154.43717,58.4730671 216.125008,66.7986877 296.442841,62.5186931 C366.042464,58.8093952 424.74118,-0.515841536 371.44955,0.362117898" id="Fill-3" fill="#E6E6E6" mask="url(#mask-2)"></path>
                </g>
                <g id="Group-8" transform="translate(131.486305, 0.435981)">
                    <mask id="mask-4" fill="white">
                        <use xlink:href="#path-3"></use>
                    </mask>
                    <g id="Clip-7"></g>
                    <path d="M187.330938,303.982174 L9.95037608,303.982174 C4.57143281,303.982174 0.210701037,299.621442 0.210701037,294.242499 L0.210701037,9.76472664 C0.210701037,4.38578337 4.57143281,0.0250516013 9.95037608,0.0250516013 L187.330938,0.0250516013 C192.709881,0.0250516013 197.070613,4.38578337 197.070613,9.76472664 L197.070613,294.242499 C197.070613,299.621442 192.709881,303.982174 187.330938,303.982174" id="Fill-6" fill="#4E5255" mask="url(#mask-4)"></path>
                </g>
                <path d="M308.950834,273.28861 L151.302906,273.28861 C146.583701,273.28861 142.75768,269.46259 142.75768,264.742923 L142.75768,18.2185579 C142.75768,13.4993529 146.583701,9.67333212 151.302906,9.67333212 L308.950834,9.67333212 C313.6705,9.67333212 317.496521,13.4993529 317.496521,18.2185579 L317.496521,264.742923 C317.496521,269.46259 313.6705,273.28861 308.950834,273.28861" id="Fill-9" fill="#F2F2F2"></path>
                <path d="M259.149404,294.986757 L201.104428,294.986757 C198.327991,294.986757 196.056738,292.715504 196.056738,289.939067 L196.056738,289.434806 C196.056738,286.65883 198.327991,284.387116 201.104428,284.387116 L259.149404,284.387116 C261.925841,284.387116 264.197094,286.65883 264.197094,289.434806 L264.197094,289.939067 C264.197094,292.715504 261.925841,294.986757 259.149404,294.986757" id="Fill-11" fill="#F2F2F2"></path>
                <mask id="mask-6" fill="white">
                    <use xlink:href="#path-5"></use>
                </mask>
                <g id="Clip-14"></g>
                <polygon id="Fill-13" fill="#0079FF" mask="url(#mask-6)" points="154.148546 31.8579783 190.489977 31.8579783 190.489977 17.8706036 154.148546 17.8706036"></polygon>
                <polygon id="Fill-15" fill="#666666" mask="url(#mask-6)" points="237.436124 25.4216084 255.60707 25.4216084 255.60707 21.611735 237.436124 21.611735"></polygon>
                <polygon id="Fill-16" fill="#666666" mask="url(#mask-6)" points="259.982565 25.4216084 278.153511 25.4216084 278.153511 21.611735 259.982565 21.611735"></polygon>
                <polygon id="Fill-17" fill="#666666" mask="url(#mask-6)" points="281.855889 25.4216084 300.026835 25.4216084 300.026835 21.611735 281.855889 21.611735"></polygon>
                <polygon id="Fill-18" fill="#666666" mask="url(#mask-6)" points="154.148546 89.1477148 230.12687 89.1477148 230.12687 41.0264953 154.148546 41.0264953"></polygon>
                <polygon id="Fill-19" fill="#333333" mask="url(#mask-6)" points="154.148546 254.836607 230.12687 254.836607 230.12687 206.715387 154.148546 206.715387"></polygon>
                <polygon id="Fill-20" fill="#666666" mask="url(#mask-6)" points="237.436586 47.4204206 293.223226 47.4204206 293.223226 41.0264953 237.436586 41.0264953"></polygon>
                <polygon id="Fill-21" fill="#B3B3B3" mask="url(#mask-6)" points="237.436586 63.2836666 293.223226 63.2836666 293.223226 49.4393121 237.436586 49.4393121"></polygon>
                <path d="M260.618544,80.7349904 L242.147717,80.7349904 C239.556283,80.7349904 237.436355,78.615062 237.436355,76.0236284 C237.436355,73.4326562 239.556283,71.3127279 242.147717,71.3127279 L260.618544,71.3127279 C263.209516,71.3127279 265.329906,73.4326562 265.329906,76.0236284 C265.329906,78.615062 263.209516,80.7349904 260.618544,80.7349904" id="Fill-22" fill="#0079FF" mask="url(#mask-6)"></path>
                <path d="M201.37326,248.65472 L182.902433,248.65472 C180.310999,248.65472 178.191071,246.534792 178.191071,243.943358 C178.191071,241.352386 180.310999,239.232458 182.902433,239.232458 L201.37326,239.232458 C203.964232,239.232458 206.084622,241.352386 206.084622,243.943358 C206.084622,246.534792 203.964232,248.65472 201.37326,248.65472" id="Fill-23" fill="#0079FF" mask="url(#mask-6)"></path>
                <polygon id="Fill-24" fill="#E6E6E6" mask="url(#mask-6)" points="142.75768 195.277924 317.496521 195.277924 317.496521 106.141743 142.75768 106.141743"></polygon>
                <polygon id="Fill-25" fill="#666666" mask="url(#mask-6)" points="202.23378 121.453208 258.020421 121.453208 258.020421 115.059283 202.23378 115.059283"></polygon>
                <polygon id="Fill-26" fill="#B3B3B3" mask="url(#mask-6)" points="194.89546 130.538681 265.357818 130.538681 265.357818 124.144756 194.89546 124.144756"></polygon>
                <polygon id="Fill-27" fill="#666666" mask="url(#mask-6)" points="241.231696 218.846268 291.163735 218.846268 291.163735 212.452342 241.231696 212.452342"></polygon>
                <polygon id="Fill-28" fill="#F2F2F2" mask="url(#mask-6)" points="167.171688 217.247671 217.103728 217.247671 217.103728 214.050939 167.171688 214.050939"></polygon>
                <polygon id="Fill-29" fill="#B3B3B3" mask="url(#mask-6)" points="161.551917 232.329842 222.723499 232.329842 222.723499 221.259157 161.551917 221.259157"></polygon>
                <polygon id="Fill-30" fill="#B3B3B3" mask="url(#mask-6)" points="241.231696 238.754678 304.298986 238.754678 304.298986 222.796854 241.231696 222.796854"></polygon>
                <polygon id="Fill-31" fill="#B3B3B3" mask="url(#mask-6)" points="171.772325 185.078739 202.480144 185.078739 202.480144 174.958446 171.772325 174.958446"></polygon>
                <polygon id="Fill-32" fill="#B3B3B3" mask="url(#mask-6)" points="214.77296 185.078739 245.480779 185.078739 245.480779 174.958446 214.77296 174.958446"></polygon>
                <polygon id="Fill-33" fill="#B3B3B3" mask="url(#mask-6)" points="257.472792 185.078739 288.180611 185.078739 288.180611 174.958446 257.472792 174.958446"></polygon>
                <polygon id="Fill-34" fill="#666666" mask="url(#mask-6)" points="172.319492 171.094132 201.932515 171.094132 201.932515 141.48111 172.319492 141.48111"></polygon>
                <polygon id="Fill-35" fill="#666666" mask="url(#mask-6)" points="215.320589 171.094132 244.933612 171.094132 244.933612 141.48111 215.320589 141.48111"></polygon>
                <polygon id="Fill-36" fill="#666666" mask="url(#mask-6)" points="258.020421 171.094132 287.633443 171.094132 287.633443 141.48111 258.020421 141.48111"></polygon>
                <polygon id="Fill-37" fill="#C6C5D3" mask="url(#mask-6)" points="99.2741442 213.031574 92.6444662 260.451072 65.4987725 289.143229 59.488695 295.495632 55.5953163 292.486211 76.9380811 257.777517 79.4686158 218.450655 80.0517691 209.382714"></polygon>
                <path d="M69.4903738,316.787002 L49.9505862,302.075761 C49.3088407,301.592722 49.1801226,300.680622 49.6636231,300.038876 L55.7641263,291.935629 L60.2337379,295.384261 L71.6172225,314.884834 C72.427824,316.255521 70.7627922,317.744776 69.4903738,316.787002" id="Fill-38" fill="#4E5255" mask="url(#mask-6)"></path>
                <polygon id="Fill-39" fill="#AAAAB2" mask="url(#mask-6)" points="92.6446508 260.450887 98.9010921 215.699869 79.6588788 212.531742"></polygon>
                <path d="M124.494878,260.309021 L112.236664,263.236782 L84.2102426,217.715762 L83.5117504,216.584057 C83.5089823,216.581289 83.5089823,216.57806 83.5089823,216.57806 L101.538754,215.699639 L104.627067,221.699566 L124.494878,260.309021 Z" id="Fill-40" fill="#E2E0EF" mask="url(#mask-6)"></path>
                <path d="M122.364062,319.201829 L99.8037802,319.477258 C99.0633047,319.486024 98.4552382,318.892721 98.4460111,318.151784 L98.3320563,308.795957 L103.940755,308.794111 L122.844333,316.614086 C124.209023,317.157563 123.833018,319.183836 122.364062,319.201829" id="Fill-41" fill="#4E5255" mask="url(#mask-6)"></path>
                <polygon id="Fill-42" fill="#E2E0EF" mask="url(#mask-6)" points="98.3319179 308.793927 103.940616 308.793927 124.494924 260.30962 112.236249 263.235537"></polygon>
                <path d="M127.240774,147.288006 C128.174096,149.308743 127.292907,151.703639 125.27217,152.636961 L102.214086,163.479276 C100.193349,164.412598 97.7984526,163.531409 96.8651305,161.510672 C95.9313471,159.489935 96.812536,157.095501 98.8332729,156.161717 L121.891819,145.319403 C123.912555,144.38608 126.307452,145.267269 127.240774,147.288006" id="Fill-43" fill="#ECA89E" mask="url(#mask-6)"></path>
                <path d="M145.067226,121.436138 C146.218307,122.369921 145.931806,124.630563 144.427326,126.484751 L126.979324,151.349964 C125.576803,153.078202 123.038887,153.342558 121.310188,151.940038 C119.58195,150.537517 119.317594,147.999601 120.720114,146.270902 L140.258979,123.102554 C141.763459,121.248366 143.916144,120.502354 145.067226,121.436138" id="Fill-44" fill="#ECA89E" mask="url(#mask-6)"></path>
                <path d="M99.6441051,153.951317 L104.422825,164.294445 L89.5911697,171.146496 C86.7349181,172.466434 83.3494917,171.220774 82.0300151,168.364523 C80.7105385,165.508271 81.9561983,162.122845 84.8124499,160.803368 L99.6441051,153.951317 Z" id="Fill-45" fill="#FF5E62" mask="url(#mask-6)"></path>
                <path d="M142.120548,120.791163 C142.120548,120.791163 140.069823,113.52666 142.074413,110.979516 C144.079002,108.432834 144.197109,114.215002 144.819939,115.134484 C145.442769,116.053965 143.987193,121.1441 142.120548,120.791163" id="Fill-46" fill="#C98881" mask="url(#mask-6)"></path>
                <path d="M144.491269,125.318905 C146.560449,124.286853 152.576524,118.499149 151.318408,113.267839 C150.060291,108.03653 148.855692,108.79915 147.672777,109.863498 C146.489861,110.928306 141.641938,117.888314 142.033168,120.198321 C142.423936,122.507867 142.343198,126.390173 144.491269,125.318905" id="Fill-47" fill="#ECA89E" mask="url(#mask-6)"></path>
                <path d="M94.6881786,154.093414 C94.3430848,156.837095 94.2826472,160.730013 95.1292345,165.924875 L85.534425,158.061071 C85.534425,158.061071 86.3436425,155.801352 87.0947292,151.883522 C87.4467434,150.044098 87.674653,148.18991 87.5750002,146.720493 C87.5251738,145.926962 87.3793855,145.247385 87.1090312,144.742201 L96.0653247,148.873177 C96.0653247,148.873177 96.0154983,148.962219 95.9301475,149.147223 C95.6524115,149.745139 95.0295817,151.342813 94.6881786,154.093414" id="Fill-48" fill="#ECA89E" mask="url(#mask-6)"></path>
                <path d="M95.9300553,149.147269 C95.6523193,149.745185 95.0299508,151.342859 94.6880864,154.093461 L87.0946369,151.883568 C87.4466511,150.044144 87.6745607,148.189956 87.5749079,146.720539 L95.9300553,149.147269 Z" id="Fill-49" fill="#C98881" mask="url(#mask-6)"></path>
                <path d="M105.483389,121.957193 C106.747503,123.67159 107.012321,131.917857 111.516995,135.499359 C111.516995,135.499359 107.839531,142.06537 106.25985,148.006244 C105.349596,151.428118 101.723342,153.363504 98.368365,152.23226 C94.1045179,150.794215 88.8386067,148.66829 84.9876727,145.954135 C77.3753077,140.58811 80.0400968,127.066243 81.9491856,124.13479 C83.8582745,121.203799 97.9406885,111.726635 105.483389,121.957193" id="Fill-50" fill="#ECA89E" mask="url(#mask-6)"></path>
                <path d="M115.149062,110.053207 C118.713033,117.138704 113.525553,126.945276 103.562582,131.956519 C93.5991491,136.967762 82.6336526,135.286121 79.0696817,128.200624 C75.5057108,121.115127 80.6931916,111.308555 90.6561626,106.297312 C100.619595,101.286069 111.585092,102.96771 115.149062,110.053207" id="Fill-51" fill="#4E5255" mask="url(#mask-6)"></path>
                <path d="M94.2671457,121.218147 C97.2092094,127.067673 93.9368151,134.655125 86.9583525,138.165117 C79.9794285,141.67511 71.9370802,139.778939 68.9950165,133.929874 C66.0524914,128.080348 69.3248856,120.492897 76.3038096,116.982904 C83.2827336,113.472451 91.3250819,115.368622 94.2671457,121.218147" id="Fill-52" fill="#4E5255" mask="url(#mask-6)"></path>
                <path d="M89.1192031,132.285926 C90.6126107,135.097888 90.2758212,138.199581 88.366271,139.21364 C86.4571821,140.227699 83.6987378,138.769816 82.2053302,135.957854 C80.7119226,133.145893 81.0487121,130.0442 82.9582623,129.030141 C84.8673512,128.016082 87.6257955,129.473965 89.1192031,132.285926" id="Fill-53" fill="#ECA89E" mask="url(#mask-6)"></path>
                <path d="M102.8371,214.895496 C103.474232,226.613002 77.3698175,215.845427 77.3698175,215.845427 C77.3698175,210.686089 80.9102593,201.889425 81.369308,192.933131 C81.8283567,183.976838 75.8574943,182.140643 74.4803483,172.725301 C73.0995114,163.309497 81.1381689,156.648447 84.3335168,157.338635 L94.4395081,163.597844 C94.4395081,163.597844 95.0835603,164.096108 96.037182,164.9713 C98.1935574,166.953283 101.943916,170.871113 103.399492,175.3052 C104.335121,178.155454 104.32451,181.218855 102.335607,184.118935 C102.05418,184.535539 101.727079,184.947991 101.360301,185.353984 C99.2611339,187.67737 98.115127,190.051044 97.5956407,192.45286 C95.9518312,200.021396 102.4491,207.703887 102.8371,214.895496" id="Fill-54" fill="#FF5E62" mask="url(#mask-6)"></path>
                <path d="M103.399354,175.305016 L89.4539626,177.60718 C86.3513471,178.119746 83.4189719,176.020117 82.9068673,172.913811 C82.8533501,172.596859 82.8284369,172.28406 82.8284369,171.974491 C82.8284369,169.238192 84.8104199,166.825303 87.5965455,166.366254 L96.0370436,164.971576 C98.193419,166.953559 101.943777,170.87139 103.399354,175.305016" id="Fill-55" fill="#DD4A55" mask="url(#mask-6)"></path>
                <polygon id="Fill-56" fill="#4D4D4D" mask="url(#mask-6)" points="158.725008 141.981865 143.083674 117.093122 158.613821 86.5490841 174.255617 111.437827"></polygon>
                <path d="M132.092065,162.957206 C132.45469,165.153258 130.968664,167.227512 128.772151,167.590138 L103.661035,171.911654 C101.464983,172.27428 99.3907287,170.787792 99.0281033,168.59174 C98.6654779,166.395688 100.151504,164.321434 102.347556,163.958809 L127.459133,159.637292 C129.655185,159.274667 131.729439,160.761154 132.092065,162.957206" id="Fill-57" fill="#ECA89E" mask="url(#mask-6)"></path>
                <path d="M156.150368,142.775489 C157.011718,143.981933 156.13422,146.084791 154.190991,147.472087 L130.760132,166.803342 C128.94885,168.096521 126.431695,167.676688 125.138515,165.864945 C123.844875,164.053664 124.265169,161.536508 126.076451,160.242867 L151.071767,143.103512 C153.015457,141.715755 155.289017,141.569044 156.150368,142.775489" id="Fill-58" fill="#ECA89E" mask="url(#mask-6)"></path>
                <path d="M103.717136,162.043307 L105.57363,173.284694 L89.4538703,175.946715 C86.3498708,176.459742 83.4174955,174.35873 82.9049296,171.254269 C82.3923637,168.150269 84.4933764,165.217894 87.597376,164.705328 L103.717136,162.043307 Z" id="Fill-59" fill="#FF5E62" mask="url(#mask-6)"></path>
                <path d="M153.481242,141.370292 C153.481242,141.370292 153.436029,133.822055 156.045456,131.899587 C158.654882,129.977119 157.2316,135.583049 157.587305,136.63494 C157.943472,137.687291 155.186873,142.20673 153.481242,141.370292" id="Fill-60" fill="#C98881" mask="url(#mask-6)"></path>
                <path d="M154.562844,146.365388 C156.832251,145.921102 164.170571,141.940527 164.348193,136.562968 C164.526276,131.185409 163.162048,131.600629 161.738766,132.3125 C160.315485,133.023911 153.791919,138.444837 153.554782,140.775605 C153.317184,143.105911 152.207163,146.826743 154.562844,146.365388" id="Fill-61" fill="#ECA89E" mask="url(#mask-6)"></path>
            </g>
        </g>
    </g>
</svg>